<svg width="46" height="46" viewBox="0 0 46 46" fill="none" xmlns="http://www.w3.org/2000/svg">
<g clipPath="url(#clip0)">
<path d="M38.4893 13.7039C37.1243 12.5119 35.5758 11.4926 33.8863 10.6845L32.7852 11.4823L35.423 22.0104L36.4598 22.2856C40.2883 21.2747 41.5341 16.3629 38.4893 13.7039Z" fill="#454D58"/>
<path d="M34.9077 32.2964C34.2483 31.5456 33.4061 30.9077 32.3772 30.4457C30.3465 29.5339 29.0972 28.3241 29.0972 26.9844C29.0972 25.5438 30.5389 24.2576 32.8367 23.3281L33.8861 22.2862L30.0618 9.69352L28.1341 8.27435L26.7856 8.70093C14.712 7.45983 4.27039 16.0517 4.27039 26.9844C4.27039 39.9134 18.5692 48.8065 31.7857 44.1528C34.4677 43.2085 36.0697 41.0534 36.5493 38.6856L37.3281 38.0153L36.3408 32.6163L34.9077 32.2964Z" fill="#454D58"/>
<path d="M9.88535 26.985C9.88535 17.2141 18.2261 9.31392 28.6179 8.63101L28.1341 8.27487L26.7856 8.70145C14.712 7.46044 4.27039 16.0523 4.27039 26.985C4.27039 38.4579 15.53 46.7514 27.3012 45.2224C17.8036 43.99 9.88535 36.6058 9.88535 26.985Z" fill="#262626"/>
<path d="M14.7541 21.5822C16.4235 21.5822 17.7767 20.2289 17.7767 18.5595C17.7767 16.8902 16.4235 15.5369 14.7541 15.5369C13.0848 15.5369 11.7315 16.8902 11.7315 18.5595C11.7315 20.2289 13.0848 21.5822 14.7541 21.5822Z" fill="#F87C68"/>
<path d="M22.9372 17.693C24.5567 17.693 25.8695 16.3801 25.8695 14.7607C25.8695 13.1412 24.5567 11.8284 22.9372 11.8284C21.3177 11.8284 20.0049 13.1412 20.0049 14.7607C20.0049 16.3801 21.3177 17.693 22.9372 17.693Z" fill="#FFD064"/>
<path d="M16.246 39.1963C17.8655 39.1963 19.1784 37.8834 19.1784 36.264C19.1784 34.6445 17.8655 33.3316 16.246 33.3316C14.6266 33.3316 13.3137 34.6445 13.3137 36.264C13.3137 37.8834 14.6266 39.1963 16.246 39.1963Z" fill="#5291D9"/>
<path d="M24.7862 41.9345C26.4057 41.9345 27.7185 40.6217 27.7185 39.0022C27.7185 37.3827 26.4057 36.0699 24.7862 36.0699C23.1667 36.0699 21.8539 37.3827 21.8539 39.0022C21.8539 40.6217 23.1667 41.9345 24.7862 41.9345Z" fill="#95D6A4"/>
<path d="M11.4004 31.2517C13.3543 31.2517 14.9383 29.6677 14.9383 27.7138C14.9383 25.7598 13.3543 24.1758 11.4004 24.1758C9.44642 24.1758 7.86243 25.7598 7.86243 27.7138C7.86243 29.6677 9.44642 31.2517 11.4004 31.2517Z" fill="#FF94D5"/>
<path d="M14.7403 18.5595C14.7403 17.438 15.3515 16.4599 16.2586 15.9382C15.8154 15.6833 15.3021 15.5368 14.7541 15.5368C13.0847 15.5368 11.7315 16.8901 11.7315 18.5594C11.7315 20.2287 13.0848 21.582 14.7541 21.582C15.302 21.582 15.8154 21.4355 16.2586 21.1806C15.3515 20.659 14.7403 19.6809 14.7403 18.5595Z" fill="#EC625E"/>
<path d="M23.0137 14.7607C23.0137 13.6913 23.5863 12.7558 24.4415 12.2436C24.0017 11.9801 23.4872 11.8284 22.9372 11.8284C21.3177 11.8284 20.0049 13.1412 20.0049 14.7607C20.0049 16.3801 21.3177 17.693 22.9372 17.693C23.4872 17.693 24.0018 17.5412 24.4415 17.2777C23.5864 16.7654 23.0137 15.8301 23.0137 14.7607Z" fill="#FFC250"/>
<path d="M16.3225 36.264C16.3225 35.1945 16.8952 34.2591 17.7505 33.7469C17.3106 33.4834 16.7962 33.3316 16.246 33.3316C14.6266 33.3316 13.3137 34.6445 13.3137 36.264C13.3137 37.8835 14.6266 39.1963 16.246 39.1963C16.7961 39.1963 17.3106 39.0445 17.7505 38.781C16.8952 38.2687 16.3225 37.3334 16.3225 36.264Z" fill="#2E82D4"/>
<path d="M24.8622 39.0022C24.8622 37.9328 25.4349 36.9973 26.2902 36.4851C25.8503 36.2216 25.3359 36.0699 24.7858 36.0699C23.1663 36.0699 21.8535 37.3828 21.8535 39.0022C21.8535 40.6216 23.1663 41.9345 24.7858 41.9345C25.3359 41.9345 25.8504 41.7828 26.2902 41.5193C25.4349 41.007 24.8622 40.0716 24.8622 39.0022Z" fill="#78C2A4"/>
<path d="M10.8712 27.7138C10.8712 26.2979 11.7032 25.0769 12.9047 24.5114C12.4481 24.2965 11.9384 24.1758 11.4004 24.1758C9.44646 24.1758 7.86243 25.7598 7.86243 27.7138C7.86243 29.6678 9.44637 31.2517 11.4004 31.2517C11.9385 31.2517 12.4481 31.1311 12.9047 30.9162C11.7032 30.3507 10.8712 29.1296 10.8712 27.7138Z" fill="#FF72C7"/>
<path d="M34.2102 4.78751C33.5285 2.28051 31.2101 2.31168 29.0887 0.200445C28.7198 -0.166657 28.1303 -0.00637551 27.998 0.497019C27.2377 3.3917 25.2226 4.53882 25.9042 7.04573C26.4528 9.06335 28.2503 9.96143 29.2553 10.3145L29.8236 10.7779L32.7854 10.0838L32.9755 9.30305C33.6634 8.4897 34.7588 6.80513 34.2102 4.78751Z" fill="#E39B74"/>
<path d="M31.9784 9.97541C30.9734 9.62224 29.1759 8.72416 28.6274 6.70663C28.0374 4.53663 29.4674 3.38466 30.3558 1.23712C29.9351 0.951058 29.5081 0.618097 29.0887 0.200773C28.7198 -0.166329 28.1303 -0.00604745 27.998 0.497347C27.2377 3.39202 25.2226 4.53915 25.9042 7.04606C26.4528 9.06368 28.2503 9.96176 29.2553 10.3148L29.8236 10.7783L32.2621 10.2068L31.9784 9.97541Z" fill="#DD8858"/>
<path d="M33.6911 9.96901C33.5569 9.4754 33.0479 9.18395 32.5543 9.31818L29.6253 10.1146C29.1317 10.2488 28.8403 10.7577 28.9745 11.2514L30.4665 16.7392L31.0035 17.1304L35.0143 16.174L35.1833 15.4568L33.6911 9.96901Z" fill="#477B9E"/>
<path d="M32.985 16.228L31.3932 10.3734C31.3195 10.1025 31.3667 9.8278 31.5008 9.60489L29.6253 10.1148C29.1317 10.2491 28.8403 10.758 28.9745 11.2517L30.4665 16.7395L31.0035 17.1307L33.4298 16.5521L32.985 16.228Z" fill="#3F6D8E"/>
<path d="M41.7159 43.6407C41.6838 40.527 41.1995 37.4345 40.2781 34.4601L35.2256 18.3553L34.5665 17.8941L32.0621 18.461L31.8967 19.2604L35.6944 35.7064C36.4058 38.7379 37.554 41.6499 39.103 44.3511L39.7426 45.4665C39.9834 45.8865 40.4774 46.0909 40.9445 45.9638C41.4116 45.8368 41.734 45.4105 41.7291 44.9264L41.7159 43.6407Z" fill="#FFD064"/>
<path d="M41.2804 43.4229C39.7314 40.7216 38.5832 37.8096 37.8717 34.7781L34.074 18.3321L34.1455 17.9867L32.0621 18.4583L31.8967 19.2576L35.6944 35.7036C36.4058 38.7351 37.554 41.6471 39.103 44.3484L39.7426 45.4638C39.9834 45.8837 40.4774 46.0881 40.9445 45.9611C41.4116 45.834 41.734 45.4077 41.7291 44.9236L41.7215 44.1922L41.2804 43.4229Z" fill="#FFC250"/>
<path d="M35.0446 15.4808L30.598 16.6898C30.1783 16.8039 29.9307 17.2365 30.0448 17.6561L30.3719 18.859C30.486 19.2786 30.9185 19.5263 31.3382 19.4122L35.7849 18.2033C36.2044 18.0892 36.4521 17.6566 36.338 17.237L36.011 16.0341C35.8969 15.6143 35.4642 15.3667 35.0446 15.4808Z" fill="#5895B7"/>
<path d="M33.1639 18.119L32.8147 16.8346C32.7343 16.539 32.8229 16.238 33.0206 16.0319L30.598 16.6905C30.1783 16.8046 29.9307 17.2372 30.0448 17.6569L30.3719 18.8598C30.486 19.2794 30.9186 19.5271 31.3381 19.413L33.8513 18.7297C33.5315 18.6819 33.2542 18.4511 33.1639 18.119Z" fill="#477B9E"/>
</g>
<defs>
<clipPath id="clip0">
<rect width="46" height="46" fill="white"/>
</clipPath>
</defs>
</svg>
