<svg width="46" height="46" viewBox="0 0 46 46" fill="none" xmlns="http://www.w3.org/2000/svg">
<g clipPath="url(#clip0)">
<path d="M40.3817 10.5594C40.3817 11.6781 41.1699 12.6115 42.2191 12.8304C42.4254 12.8734 42.5707 13.0593 42.5707 13.2701V16.1411C42.5707 16.3518 42.4255 16.5377 42.2191 16.5807C41.1699 16.7996 40.3817 17.7331 40.3817 18.8517C40.3817 19.9704 41.1699 20.9038 42.2191 21.1227C42.4254 21.1657 42.5707 21.3516 42.5707 21.5624V24.4343C42.5707 24.6451 42.4254 24.831 42.2191 24.874C41.1699 25.0929 40.3817 26.0264 40.3817 27.145C40.3817 28.2637 41.1699 29.1971 42.2191 29.416C42.4254 29.459 42.5707 29.6449 42.5707 29.8557V32.7266C42.5707 32.9373 42.4255 33.1232 42.2191 33.1663C41.1699 33.3851 40.3817 34.3186 40.3817 35.4372C40.3817 36.5559 41.1699 37.4894 42.2191 37.7082C42.4254 37.7513 42.5707 37.9371 42.5707 38.1479V44.8749C42.5707 45.124 42.3687 45.3261 42.1195 45.3261H39.9635C39.7473 45.3261 39.5583 45.1733 39.5209 44.9604C39.3297 43.8733 38.3846 43.0481 37.2472 43.0481C36.1097 43.0481 35.1646 43.8733 34.9734 44.9604C34.9359 45.1732 34.7469 45.3261 34.5308 45.3261H31.7058C31.4896 45.3261 31.3006 45.1733 31.2632 44.9604C31.072 43.8733 30.1269 43.0481 28.9895 43.0481C27.852 43.0481 26.9069 43.8733 26.7157 44.9604C26.6782 45.1732 26.4892 45.3261 26.2731 45.3261H23.4471C23.2309 45.3261 23.0419 45.1733 23.0045 44.9604C22.8132 43.8733 21.8682 43.0481 20.7307 43.0481C19.5933 43.0481 18.6482 43.8733 18.457 44.9604C18.4195 45.1732 18.2305 45.3261 18.0144 45.3261H15.1894C14.9732 45.3261 14.7842 45.1733 14.7468 44.9604C14.5556 43.8733 13.6104 43.0481 12.473 43.0481C11.3356 43.0481 10.3904 43.8733 10.1993 44.9604C10.1618 45.1732 9.97276 45.3261 9.75669 45.3261H7.60017C7.35103 45.3261 7.14897 45.1241 7.14897 44.8749V38.1479C7.14897 37.9371 7.29416 37.7513 7.50053 37.7082C8.54973 37.4894 9.33792 36.5559 9.33792 35.4372C9.33792 34.3186 8.54973 33.3851 7.50053 33.1663C7.29425 33.1232 7.14897 32.9373 7.14897 32.7266V29.8557C7.14897 29.6449 7.29416 29.459 7.50053 29.416C8.54973 29.1971 9.33792 28.2637 9.33792 27.145C9.33792 26.0264 8.54973 25.0929 7.50053 24.874C7.29425 24.831 7.14897 24.6451 7.14897 24.4343V21.5624C7.14897 21.3516 7.29425 21.1657 7.50053 21.1227C8.54973 20.9038 9.33792 19.9704 9.33792 18.8517C9.33792 17.7331 8.54973 16.7996 7.50053 16.5807C7.29425 16.5377 7.14897 16.3518 7.14897 16.1411V13.2701C7.14897 13.0593 7.29416 12.8734 7.50053 12.8304C8.54973 12.6115 9.33792 11.6781 9.33792 10.5594C9.33792 9.44077 8.54973 8.5073 7.50053 8.28844C7.29425 8.2454 7.14897 8.05951 7.14897 7.84874V1.12178C7.14897 0.872644 7.35094 0.670586 7.60017 0.670586H9.75615C9.97231 0.670586 10.1613 0.82332 10.1987 1.03625C10.3899 2.12336 11.3351 2.94857 12.4725 2.94857C13.6099 2.94857 14.5551 2.12336 14.7463 1.03625C14.7837 0.82341 14.9727 0.670586 15.1888 0.670586H18.0139C18.23 0.670586 18.4191 0.82332 18.4564 1.03625C18.6476 2.12336 19.5928 2.94857 20.7302 2.94857C21.8676 2.94857 22.8128 2.12336 23.004 1.03625C23.0414 0.82341 23.2305 0.670586 23.4465 0.670586H26.2726C26.4887 0.670586 26.6778 0.82332 26.7151 1.03625C26.9064 2.12336 27.8515 2.94857 28.9889 2.94857C30.1263 2.94857 31.0715 2.12336 31.2627 1.03625C31.3001 0.82341 31.4892 0.670586 31.7052 0.670586H34.5303C34.7465 0.670586 34.9355 0.82332 34.9729 1.03625C35.1641 2.12336 36.1092 2.94857 37.2466 2.94857C38.3841 2.94857 39.3292 2.12336 39.5204 1.03625C39.5579 0.82341 39.7469 0.670586 39.963 0.670586H42.1189C42.3681 0.670586 42.5701 0.872554 42.5701 1.12178V7.84874C42.5701 8.05951 42.425 8.2454 42.2186 8.28844C41.1699 8.5073 40.3817 9.44077 40.3817 10.5594Z" fill="#FF5757"/>
<path d="M40.382 10.5592C40.382 11.6781 41.1698 12.6112 42.2192 12.8304C42.4259 12.8737 42.5703 13.0596 42.5703 13.2698V16.141C42.5703 16.3513 42.4259 16.5372 42.2192 16.5805C41.1698 16.7998 40.382 17.7328 40.382 18.8516C40.382 19.9705 41.1698 20.9036 42.2192 21.1229C42.4259 21.1653 42.5703 21.3512 42.5703 21.5623V24.4345C42.5703 24.6447 42.4259 24.8306 42.2192 24.8739C41.1698 25.0923 40.382 26.0263 40.382 27.1452C40.382 28.2632 41.1698 29.1971 42.2192 29.4155C42.4259 29.4588 42.5703 29.6447 42.5703 29.8559V32.7262C42.5703 32.9373 42.4259 33.1232 42.2192 33.1665C41.1698 33.3848 40.382 34.3188 40.382 35.4368C40.382 36.5557 41.1698 37.4887 42.2192 37.7079C42.4259 37.7512 42.5703 37.9371 42.5703 38.1474V44.8744C42.5703 45.1235 42.369 45.3256 42.1191 45.3256H39.9634C39.9156 45.3256 39.8686 45.3184 39.8253 45.304C40.0058 45.2444 40.1366 45.0748 40.1366 44.8744V38.1474C40.1366 37.9371 39.9913 37.7512 39.7847 37.7079C38.7352 37.4886 37.9474 36.5556 37.9474 35.4368C37.9474 34.3188 38.7352 33.3848 39.7847 33.1665C39.9913 33.1232 40.1366 32.9373 40.1366 32.7262V29.8559C40.1366 29.6447 39.9913 29.4588 39.7847 29.4155C38.7352 29.1971 37.9474 28.2632 37.9474 27.1452C37.9474 26.0263 38.7352 25.0923 39.7847 24.8739C39.9913 24.8306 40.1366 24.6447 40.1366 24.4345V21.5623C40.1366 21.3512 39.9913 21.1653 39.7847 21.1229C38.7352 20.9036 37.9474 19.9705 37.9474 18.8516C37.9474 17.7327 38.7352 16.7997 39.7847 16.5805C39.9913 16.5372 40.1366 16.3513 40.1366 16.141V13.2698C40.1366 13.0596 39.9913 12.8737 39.7847 12.8304C38.7352 12.6111 37.9474 11.678 37.9474 10.5592C37.9474 9.44121 38.7352 8.50728 39.7847 8.28887C39.9913 8.24557 40.1366 8.05968 40.1366 7.84855V1.12159C40.1366 0.921235 40.0058 0.75161 39.8253 0.692043C39.8686 0.677579 39.9155 0.670391 39.9634 0.670391H42.1191C42.369 0.670391 42.5703 0.872539 42.5703 1.12159V7.84864C42.5703 8.05977 42.4259 8.24566 42.2192 8.28896C41.1698 8.50728 40.382 9.44121 40.382 10.5592Z" fill="#F72C2C"/>
<path d="M36.8726 39.8316H12.8471C12.5481 39.8316 12.3057 39.5892 12.3057 39.2902V6.71464C12.3057 6.41564 12.5481 6.17324 12.8471 6.17324H36.8726C37.1716 6.17324 37.414 6.41564 37.414 6.71464V39.2902C37.414 39.5892 37.1716 39.8316 36.8726 39.8316Z" fill="#C9F0FF"/>
<path d="M37.4142 6.71471V39.2904C37.4142 39.5891 37.1714 39.8318 36.8728 39.8318H34.7992C35.0978 39.8318 35.3406 39.5891 35.3406 39.2904V6.71471C35.3406 6.41607 35.0978 6.17331 34.7992 6.17331H36.8728C37.1714 6.17331 37.4142 6.41607 37.4142 6.71471Z" fill="#9AE7FD"/>
<path d="M37.3935 29.0748L31.3939 22.3134C31.0542 21.9306 30.4624 21.9129 30.1005 22.2747L26.7121 25.6614L22.1815 20.5557C21.8418 20.1729 21.25 20.1552 20.8881 20.517L12.3262 29.0748H12.3057V39.2861C12.3057 39.5851 12.5481 39.8275 12.8471 39.8275H36.8726C37.1716 39.8275 37.414 39.5851 37.414 39.2861V29.0748H37.3935Z" fill="#A3E72D"/>
<path d="M31.0093 17.9696C33.0714 17.9696 34.7431 16.298 34.7431 14.2358C34.7431 12.1737 33.0714 10.502 31.0093 10.502C28.9471 10.502 27.2755 12.1737 27.2755 14.2358C27.2755 16.298 28.9471 17.9696 31.0093 17.9696Z" fill="#FFCD6B"/>
<path d="M34.7433 14.2358C34.7433 16.2976 33.0712 17.9697 31.0093 17.9697C29.9292 17.9697 28.9565 17.5113 28.2752 16.7777C28.6289 16.8895 29.0061 16.9491 29.3968 16.9491C31.4587 16.9491 33.1298 15.277 33.1298 13.2152C33.1298 12.2326 32.7509 11.3401 32.1301 10.6732C33.6442 11.1489 34.7433 12.5646 34.7433 14.2358Z" fill="#FFB509"/>
<path d="M37.4142 29.0777V39.2896C37.4142 39.5882 37.1714 39.831 36.8728 39.831H34.7992C35.0978 39.831 35.3406 39.5882 35.3406 39.2896V26.764L37.3934 29.0777H37.4142Z" fill="#80CF00"/>
<path d="M42.3561 8.94844C42.87 8.84134 43.243 8.37964 43.243 7.85046V1.1235C43.243 0.504023 42.739 0 42.1194 0H39.9634C39.417 0 38.9524 0.387676 38.8586 0.921437C38.7203 1.70739 38.0426 2.27781 37.247 2.27781C36.4514 2.27781 35.7737 1.70739 35.6355 0.921437C35.5415 0.387496 35.0768 0 34.5307 0H31.7056C31.1594 0 30.6948 0.387496 30.6007 0.921527C30.4624 1.70748 29.7848 2.27781 28.9892 2.27781C28.1936 2.27781 27.5159 1.7073 27.3776 0.921707C27.2838 0.387676 26.8192 0 26.2728 0H23.4466C22.9004 0 22.4359 0.387496 22.3418 0.921527C22.2036 1.70748 21.5258 2.27781 20.7302 2.27781C19.9346 2.27781 19.257 1.70739 19.1187 0.921437C19.0248 0.387496 18.5601 0 18.0139 0H15.1888C14.6424 0 14.1778 0.387676 14.084 0.921437C13.9457 1.70739 13.268 2.27781 12.4724 2.27781C11.6768 2.27781 10.9991 1.70739 10.8609 0.921437C10.767 0.387496 10.3023 0 9.75607 0H7.60009C6.98062 0 6.47659 0.504023 6.47659 1.1235V7.85046C6.47659 8.37955 6.84953 8.84125 7.36317 8.94835C8.11777 9.10575 8.66546 9.78407 8.66546 10.5611C8.66546 11.3382 8.11777 12.0164 7.36326 12.1739C6.84953 12.281 6.47659 12.7427 6.47659 13.2718V16.1428C6.47659 16.6719 6.84953 17.1336 7.36317 17.2407C8.11777 17.3981 8.66546 18.0764 8.66546 18.8535C8.66546 19.6306 8.11777 20.3088 7.36299 20.4662C6.84935 20.5735 6.47659 21.0352 6.47659 21.5641V24.4361C6.47659 24.965 6.84935 25.4267 7.36317 25.534C8.11777 25.6914 8.66546 26.3696 8.66546 27.1466C8.66546 27.9237 8.11777 28.602 7.36326 28.7595C6.84953 28.8666 6.47659 29.3283 6.47659 29.8574V30.4125C5.74158 30.0809 4.83128 29.798 3.42927 29.798C3.05786 29.798 2.75688 30.099 2.75688 30.4704C2.75688 30.8418 3.05786 31.1428 3.42927 31.1428C4.93137 31.1428 5.6689 31.4927 6.47659 31.9096V32.7283C6.47659 32.9021 6.51747 33.0682 6.5898 33.2174C5.83484 32.8639 4.90406 32.551 3.42927 32.551C3.05786 32.551 2.75688 32.852 2.75688 33.2234C2.75688 33.5948 3.05786 33.8958 3.42927 33.8958C4.99642 33.8958 5.73116 34.2764 6.5818 34.717C7.15375 35.0133 7.77573 35.3351 8.66177 35.524C8.63778 35.9878 8.42 36.4096 8.08156 36.6978C7.77573 36.573 7.49461 36.4282 7.20028 36.2758C6.32089 35.8202 5.3239 35.3038 3.42927 35.3038C3.05786 35.3038 2.75688 35.6048 2.75688 35.9762C2.75688 36.3476 3.05786 36.6486 3.42927 36.6486C4.99642 36.6486 5.73116 37.0292 6.5818 37.4698C6.61181 37.4853 6.64191 37.501 6.67227 37.5166C6.54838 37.6985 6.47659 37.9175 6.47659 38.1495V44.8765C6.47659 45.4961 6.98062 46 7.60009 46H9.75607C10.3023 46 10.7669 45.6125 10.861 45.0785C10.9992 44.2925 11.6769 43.7222 12.4725 43.7222C13.2681 43.7222 13.9458 44.2927 14.0841 45.0784C14.1779 45.6124 14.6425 46 15.1889 46H18.014C18.5602 46 19.0248 45.6125 19.1189 45.0785C19.2571 44.2925 19.9348 43.7222 20.7304 43.7222C21.526 43.7222 22.2037 44.2926 22.342 45.0787C22.4361 45.6125 22.9007 46 23.4468 46H26.2729C26.8194 46 27.284 45.6124 27.3778 45.0786C27.5161 44.2926 28.1938 43.7222 28.9894 43.7222C29.7849 43.7222 30.4626 44.2926 30.6009 45.0787C30.695 45.6125 31.1595 46 31.7058 46H34.5308C35.0771 46 35.5417 45.6125 35.6357 45.0785C35.774 44.2925 36.4517 43.7222 37.2473 43.7222C38.0428 43.7222 38.7206 44.2927 38.8589 45.0784C38.9527 45.6124 39.4173 46 39.9637 46H42.1197C42.7392 46 43.2433 45.496 43.2433 44.8764L43.2428 42.5436C43.2427 42.1722 42.9417 41.8712 42.5703 41.8713C42.1989 41.8714 41.8979 42.1725 41.898 42.5438L41.8985 44.6553H40.1435C39.8202 43.3243 38.6318 42.3774 37.2473 42.3774C35.8628 42.3774 34.6742 43.3244 34.3511 44.6553H31.8857C31.5625 43.3243 30.374 42.3774 28.9895 42.3774C27.6051 42.3774 26.4165 43.3243 26.0933 44.6553H23.6269C23.3037 43.3243 22.1152 42.3774 20.7306 42.3774C19.3461 42.3774 18.1575 43.3244 17.8344 44.6553H15.369C15.0457 43.3243 13.8573 42.3774 12.4728 42.3774C11.0883 42.3774 9.89964 43.3244 9.57656 44.6553H7.82137V38.3237C7.96611 38.2837 8.10573 38.2325 8.24023 38.1722C8.80624 38.3333 9.48519 38.4417 10.3528 38.4417C10.8332 38.4417 11.2557 38.4084 11.6333 38.3514V39.2879C11.6333 39.9572 12.1777 40.5017 12.8471 40.5017H36.8725C37.5419 40.5017 38.0863 39.9572 38.0863 39.2879V6.71223C38.0863 6.04289 37.5419 5.49844 36.8725 5.49844H18.6687C18.2972 5.49844 17.9963 5.79941 17.9963 6.17083C17.9963 6.54224 18.2972 6.84322 18.6687 6.84322H36.7415V27.3287L31.8967 21.8688C31.6124 21.5483 31.2037 21.3573 30.7756 21.3444C30.3449 21.3311 29.928 21.4979 29.625 21.8008L26.7414 24.6831L22.6844 20.1111C22.4 19.7906 21.9914 19.5995 21.5632 19.5867C21.1366 19.5743 20.7157 19.7402 20.4127 20.0432L12.9781 27.4742V6.84322H15.7419C16.1133 6.84322 16.4143 6.54224 16.4143 6.17083C16.4143 5.79941 16.1133 5.49844 15.7419 5.49844H12.8472C12.1779 5.49844 11.6334 6.04289 11.6334 6.71223V31.4839C11.271 31.5515 10.855 31.591 10.353 31.591C9.17155 31.591 8.46322 31.3745 7.82155 31.0792V30.0313C9.10066 29.6775 10.0105 28.4934 10.0105 27.1465C10.0105 25.7995 9.10057 24.6154 7.82155 24.2619V21.738C9.10057 21.3842 10.0105 20.2002 10.0105 18.8534C10.0105 17.5064 9.10066 16.3224 7.82155 15.9686V13.4457C9.10057 13.0919 10.0105 11.908 10.0105 10.561C10.0105 9.21411 9.10066 8.03006 7.82155 7.67634V1.34478H9.57647C9.89964 2.67582 11.0882 3.62268 12.4727 3.62268C13.8571 3.62268 15.0455 2.67591 15.3689 1.34478H17.8343C18.1574 2.67582 19.346 3.62268 20.7305 3.62268C22.1151 3.62268 23.3036 2.67573 23.6268 1.34478H26.0932C26.4164 2.67582 27.6049 3.62268 28.9894 3.62268C30.3739 3.62268 31.5625 2.67573 31.8856 1.34478H34.351C34.6741 2.67582 35.8627 3.62268 37.2472 3.62268C38.6316 3.62268 39.82 2.67591 40.1434 1.34478H41.8984V7.67643C40.6192 8.03006 39.7093 9.21411 39.7093 10.5611C39.7093 11.908 40.6192 13.092 41.8984 13.4458V15.9686C40.6192 16.3223 39.7093 17.5063 39.7093 18.8534C39.7093 20.2004 40.6193 21.3845 41.8984 21.7381V24.2619C40.6192 24.6156 39.7093 25.7996 39.7093 27.1466C39.7093 28.4933 40.6192 29.6775 41.8984 30.0314V32.5542C40.6192 32.9078 39.7093 34.0918 39.7093 35.4389C39.7093 36.7858 40.6192 37.9699 41.8984 38.3236V39.5729C41.8984 39.9444 42.1994 40.2453 42.5708 40.2453C42.9422 40.2453 43.2432 39.9444 43.2432 39.5729V38.1495C43.2432 37.6204 42.8702 37.1587 42.3565 37.0517C41.6019 36.8942 41.0542 36.2159 41.0542 35.4389C41.0542 34.6618 41.6019 33.9836 42.3566 33.8261C42.8703 33.7188 43.2432 33.2571 43.2432 32.7282V29.8572C43.2432 29.3281 42.8702 28.8663 42.3566 28.7593C41.6019 28.6018 41.0542 27.9236 41.0542 27.1465C41.0542 26.3694 41.6019 25.6912 42.3566 25.5338C42.8703 25.4265 43.2432 24.9648 43.2432 24.4359V21.5639C43.2432 21.035 42.8703 20.5733 42.3565 20.466C41.6019 20.3086 41.0542 19.6304 41.0542 18.8534C41.0542 18.0763 41.6019 17.3979 42.3563 17.2406C42.8702 17.1335 43.2432 16.6718 43.2432 16.1426V13.2716C43.2432 12.7424 42.8702 12.2807 42.3565 12.1737C41.6019 12.0163 41.0542 11.3381 41.0542 10.561C41.0542 9.7838 41.6017 9.10575 42.3561 8.94844ZM10.3527 37.0968C10.0508 37.0968 9.78042 37.0825 9.53353 37.0565C9.79416 36.6511 9.9593 36.1812 10.0002 35.6824C10.1142 35.6865 10.2316 35.6887 10.3528 35.6887C10.8332 35.6887 11.2557 35.6554 11.6333 35.5984V36.9898C11.2708 37.0574 10.8549 37.0968 10.3527 37.0968ZM12.978 29.3755L21.3632 20.9942C21.4208 20.9366 21.4871 20.9287 21.5228 20.9308C21.5578 20.9319 21.6243 20.9428 21.6784 21.0036L26.7723 26.7442C27.0188 27.0221 27.4438 27.0475 27.7215 26.8008C27.9993 26.5544 28.0247 26.1294 27.7782 25.8517L27.6353 25.6907L30.5755 22.7519C30.6331 22.6944 30.6995 22.6873 30.7351 22.6885C30.7701 22.6896 30.8366 22.7005 30.8907 22.7613L36.7414 29.3547V39.1567H12.978V38.0024C13.4103 37.839 13.7764 37.6497 14.1239 37.4697C14.9747 37.0291 15.7094 36.6485 17.2765 36.6485C18.8437 36.6485 19.5783 37.0291 20.4291 37.4697C21.3086 37.9252 22.3056 38.4415 24.2003 38.4415C24.5718 38.4415 24.8727 38.1406 24.8727 37.7691C24.8727 37.3977 24.5718 37.0968 24.2003 37.0968C22.6331 37.0968 21.8984 36.7162 21.0476 36.2756C20.1681 35.8201 19.1712 35.3037 17.2765 35.3037C15.3818 35.3037 14.3849 35.82 13.5054 36.2756C13.3275 36.3678 13.1544 36.4569 12.978 36.5409V35.2496C13.4103 35.0862 13.7764 34.8968 14.1239 34.7169C14.9747 34.2763 15.7094 33.8957 17.2765 33.8957C18.8437 33.8957 19.5783 34.2763 20.4291 34.7169C21.3086 35.1724 22.3056 35.6887 24.2003 35.6887C24.5718 35.6887 24.8727 35.3877 24.8727 35.0163C24.8727 34.6449 24.5718 34.3439 24.2003 34.3439C22.6331 34.3439 21.8984 33.9634 21.0476 33.5228C20.1681 33.0673 19.1712 32.551 17.2765 32.551C15.3818 32.551 14.3849 33.0673 13.5054 33.5228C13.3275 33.6149 13.1544 33.7041 12.978 33.7881V32.4967C13.4103 32.3333 13.7764 32.1439 14.1239 31.964C14.9747 31.5233 15.7094 31.1428 17.2765 31.1428C18.8437 31.1428 19.5783 31.5234 20.4291 31.964C21.3086 32.4195 22.3056 32.9358 24.2003 32.9358C24.5718 32.9358 24.8727 32.6348 24.8727 32.2634C24.8727 31.892 24.5718 31.591 24.2003 31.591C22.6331 31.591 21.8984 31.2105 21.0476 30.7698C20.1681 30.3143 19.1712 29.798 17.2765 29.798C15.3818 29.798 14.3849 30.3143 13.5054 30.7698C13.3275 30.862 13.1544 30.9512 12.978 31.0351V29.3755ZM10.3527 32.9357C10.8331 32.9357 11.2556 32.9024 11.6332 32.8454V34.2369C11.2707 34.3045 10.8548 34.3439 10.3527 34.3439C10.1536 34.3439 9.96819 34.3377 9.79398 34.3261C9.45186 33.476 8.72987 32.8054 7.82128 32.5542V32.5312C8.46645 32.7639 9.26013 32.9357 10.3527 32.9357Z" fill="black"/>
<path d="M35.4154 14.2333C35.4154 11.8038 33.4389 9.82711 31.0091 9.82711C28.5796 9.82711 26.6029 11.8037 26.6029 14.2333C26.6029 16.663 28.5795 18.6396 31.0091 18.6396C33.4389 18.6396 35.4154 16.663 35.4154 14.2333ZM27.9478 14.2333C27.9478 12.5452 29.3211 11.1719 31.0092 11.1719C32.6974 11.1719 34.0707 12.5452 34.0707 14.2333C34.0707 15.9215 32.6974 17.2948 31.0092 17.2948C29.3211 17.2948 27.9478 15.9215 27.9478 14.2333Z" fill="black"/>
</g>
<defs>
<clipPath id="clip0">
<rect width="46" height="46" fill="white"/>
</clipPath>
</defs>
</svg>
