<svg width="46" height="46" viewBox="0 0 46 46" fill="none" xmlns="http://www.w3.org/2000/svg">
<path d="M18.8489 36.7003V39.4293C18.8489 40.4729 18.3488 41.442 17.5275 41.9898L15.5435 43.3132H30.4565L28.4726 41.9898C27.6512 41.442 27.1512 40.4729 27.1512 39.4293V36.7003C24.4212 36.7003 21.5789 36.7003 18.8489 36.7003Z" fill="#BED8FB"/>
<path d="M18.8489 36.7003V39.4293C18.8489 40.4729 18.3488 41.442 17.5275 41.9898L15.5435 43.3132H20.357L20.3989 43.2853C21.2202 42.7374 21.7203 41.7684 21.7203 40.7247V38.8354C21.7203 38.3716 22.0963 37.9957 22.5601 37.9957H27.1513V36.7003H18.8489Z" fill="#9DC6FB"/>
<path d="M31.8447 43.2174H14.1552C13.6626 43.2174 13.2633 43.6167 13.2633 44.1093V45.1079C13.2633 45.6005 13.6626 45.9998 14.1552 45.9998H31.8448C32.3373 45.9998 32.7366 45.6005 32.7366 45.1079V44.1093C32.7366 43.6167 32.3373 43.2174 31.8447 43.2174Z" fill="#DFEBFA"/>
<path d="M18.2061 45.1079V44.1093C18.2061 43.6167 18.6054 43.2174 19.098 43.2174H14.1552C13.6627 43.2174 13.2633 43.6167 13.2633 44.1093V45.1079C13.2633 45.6005 13.6626 45.9998 14.1552 45.9998H19.098C18.6054 45.9998 18.2061 45.6005 18.2061 45.1079Z" fill="#BED8FB"/>
<path d="M42.5935 5.09908H3.40649C1.98911 5.09908 0.83606 6.25213 0.83606 7.66951V34.2477C0.83606 35.6651 1.98911 36.8181 3.40649 36.8181H42.5935C44.0109 36.8181 45.164 35.6651 45.164 34.2477V7.66951C45.164 6.25222 44.0108 5.09908 42.5935 5.09908Z" fill="#695D67"/>
<path d="M3.80926 34.2478V7.66951C3.80926 6.25213 4.96231 5.09908 6.37969 5.09908H3.40649C1.98911 5.09908 0.83606 6.25213 0.83606 7.66951V34.2477C0.83606 35.6651 1.98911 36.8181 3.40649 36.8181H6.37969C4.96231 36.8182 3.80926 35.6652 3.80926 34.2478Z" fill="#554E56"/>
<path d="M42.0117 7.88168C40.4074 7.88168 5.70668 7.88168 3.98824 7.88168C3.78402 7.88168 3.61844 8.04726 3.61844 8.25147V33.6661C3.61844 33.8704 3.78402 34.036 3.98824 34.036H42.0117C42.2159 34.036 42.3815 33.8704 42.3815 33.6661V8.25156C42.3815 8.04726 42.2159 7.88168 42.0117 7.88168Z" fill="#80B4FB"/>
<path d="M6.29434 33.6671L6.29417 8.25247C6.29417 8.04826 6.45975 7.88268 6.66396 7.88268H3.98824C3.78393 7.88268 3.61844 8.04826 3.61844 8.25247V33.6671C3.61844 33.8714 3.78402 34.037 3.98824 34.037H6.66414C6.45984 34.037 6.29434 33.8714 6.29434 33.6671Z" fill="#0290F4"/>
<path d="M7.91815 3.12396H38.0818V34.0369H7.91815V3.12396Z" fill="#DFEBFA"/>
<path d="M7.91815 3.12396H11.9348V34.0369H7.91815V3.12396Z" fill="#BED8FB"/>
<path d="M37.712 0H11.7497V3.30796H38.0818C38.0818 1.75968 38.0818 0.681195 38.0818 0.369797C38.0818 0.165582 37.9162 0 37.712 0Z" fill="#80B4FB"/>
<path d="M33.3357 13.159H12.6643C12.017 13.159 11.4873 13.6886 11.4873 14.3359V22.6401C11.4873 23.2874 12.017 23.8171 12.6643 23.8171H33.3357C33.983 23.8171 34.5127 23.2874 34.5127 22.6401V14.3359C34.5127 13.6887 33.983 13.159 33.3357 13.159Z" fill="#FF656F"/>
<path d="M14.8411 22.6401V14.3359C14.8411 13.6886 15.3707 13.159 16.0181 13.159H12.6643C12.017 13.159 11.4873 13.6886 11.4873 14.3359V22.6401C11.4873 23.2874 12.017 23.8171 12.6643 23.8171H16.0181C15.3707 23.8171 14.8411 23.2875 14.8411 22.6401Z" fill="#FF4756"/>
<path d="M15.2772 21.0135C15.2772 21.3851 14.96 21.7115 14.5883 21.7115C14.1895 21.7115 13.8903 21.3852 13.8903 21.0135C13.8903 20.6327 14.1895 20.3155 14.5883 20.3155C14.9599 20.3155 15.2772 20.6327 15.2772 21.0135Z" fill="#DFEBFA"/>
<path d="M18.1325 16.2646C17.6158 16.2646 17.3166 16.5547 17.3166 17.1712V19.5733C17.3166 20.1897 17.6158 20.4798 18.1416 20.4798C18.8668 20.4798 18.9121 19.9268 18.9392 19.5733C18.9664 19.2379 19.2746 19.1473 19.6372 19.1473C20.1268 19.1473 20.3533 19.2742 20.3533 19.8181C20.3533 21.0237 19.3744 21.7127 18.0781 21.7127C16.8907 21.7127 15.9026 21.1325 15.9026 19.5733V17.1711C15.9026 15.6119 16.8906 15.0317 18.0781 15.0317C19.3744 15.0317 20.3533 15.6844 20.3533 16.8357C20.3533 17.3796 20.1268 17.5064 19.6463 17.5064C19.2656 17.5064 18.9573 17.4066 18.9392 17.0803C18.9302 16.8448 18.903 16.2646 18.1325 16.2646Z" fill="#DFEBFA"/>
<path d="M20.9968 19.5732V17.1711C20.9968 15.6119 21.9667 15.0317 23.2176 15.0317C24.4685 15.0317 25.4475 15.6118 25.4475 17.1711V19.5732C25.4475 21.1324 24.4685 21.7126 23.2176 21.7126C21.9666 21.7126 20.9968 21.1325 20.9968 19.5732ZM24.0335 17.1711C24.0335 16.5457 23.7253 16.2645 23.2177 16.2645C22.7101 16.2645 22.4109 16.5456 22.4109 17.1711V19.5732C22.4109 20.1987 22.7101 20.4797 23.2177 20.4797C23.7253 20.4797 24.0335 20.1988 24.0335 19.5732V17.1711Z" fill="#DFEBFA"/>
<path d="M29.5446 19.3113C29.4267 19.5107 29.2454 19.5741 29.0732 19.5741C28.91 19.5741 28.7378 19.5197 28.629 19.3113L27.7678 17.734V21.2239C27.7678 21.5141 27.4143 21.659 27.0608 21.659C26.7072 21.659 26.3537 21.514 26.3537 21.2239V15.7398C26.3537 15.2231 26.7072 15.0327 27.0608 15.0327C27.5684 15.0327 27.786 15.0871 28.1576 15.7398L29.0914 17.3714L30.0251 15.7398C30.3967 15.0871 30.6143 15.0327 31.122 15.0327C31.4846 15.0327 31.829 15.2231 31.829 15.7398V21.2239C31.829 21.5141 31.4755 21.659 31.122 21.659C30.7684 21.659 30.4149 21.514 30.4149 21.2239V17.8247L29.5446 19.3113Z" fill="#DFEBFA"/>
<path d="M11.9348 0H8.28795C8.08373 0 7.91815 0.165582 7.91815 0.369797V3.30787H11.9348V0Z" fill="#FF4756"/>
</svg>
