<svg width="46" height="46" viewBox="0 0 46 46" fill="none" xmlns="http://www.w3.org/2000/svg">
<g clipPath="url(#clip0)">
<path d="M13.9152 7.57824V7.38435C13.9152 6.61601 13.2924 5.99321 12.5241 5.99321H9.90108C9.13273 5.99321 8.50993 6.61601 8.50993 7.38435V7.48013L13.9152 7.57824Z" fill="#EDC963"/>
<path d="M37.4892 7.48013V7.38435C37.4892 6.61601 36.8664 5.99321 36.0981 5.99321H33.4751C32.7067 5.99321 32.084 6.61601 32.084 7.38435V7.57824L37.4892 7.48013Z" fill="#EDC963"/>
<path d="M37.4892 9.14915V7.47977C36.684 7.20485 35.8208 7.05472 34.9223 7.05472C33.922 7.05472 32.9652 7.24007 32.084 7.57779V9.24717L37.4892 9.14915Z" fill="#E7B93E"/>
<path d="M11.0769 8.72446C12.0772 8.72446 13.0339 8.90981 13.9152 9.24762V7.38435C13.9152 6.61601 13.2924 5.99321 12.5241 5.99321H9.90108C9.13273 5.99321 8.50993 6.61601 8.50993 7.38435V9.14951C9.31521 8.87459 10.1783 8.72446 11.0769 8.72446Z" fill="#EDC963"/>
<path d="M13.9152 9.24715V7.57785C13.0339 7.24004 12.0773 7.05478 11.0769 7.05478C10.1783 7.05478 9.31521 7.20491 8.50993 7.47983V9.14922L13.9152 9.24715Z" fill="#E7B93E"/>
<path d="M3.03742 38.6084C7.20392 40.4558 9.24257 37.6866 10.1542 34.9835L12.3581 28.4214C12.3582 28.4214 12.3583 28.4215 12.3583 28.4216L12.3583 28.4215L12.8386 27.826C12.8386 27.826 14.1979 28.5617 15.3527 28.5617C16.73 28.5617 17.9785 28.0139 18.8947 27.1254C18.9797 27.0431 19.0945 26.9989 19.2127 26.9989H26.7864C26.9047 26.9989 27.0195 27.0431 27.1044 27.1254C28.0207 28.0139 29.2693 28.5617 30.6464 28.5617C31.8013 28.5617 33.1607 27.826 33.1607 27.826L33.641 28.4214L35.8437 34.9802C36.7534 37.6856 40.3253 39.8602 42.9616 38.7659C44.556 38.1041 45.928 36.1122 45.928 34.2455L42.7953 15.5902L42.7933 15.5918C42.2678 11.7129 38.9453 8.72239 34.9223 8.72239C32.6514 8.72239 30.605 9.67644 29.1575 11.2042H16.8415C15.3941 9.67644 13.3476 8.72239 11.0767 8.72239C7.0537 8.72239 3.73128 11.7129 3.20578 15.5918L3.20372 15.5902L0.0679016 34.264L0.0710461 34.2454C-0.000469483 36.5441 1.44296 37.9466 3.03742 38.6084Z" fill="#454D58"/>
<path d="M3.03762 37.9602C1.44317 37.2985 0.351656 35.8743 0.0712534 34.2458L0.0681089 34.2644C-0.311661 36.5259 0.919468 38.7504 3.03753 39.6295C5.67436 40.724 8.68646 39.3547 9.59541 36.6483L10.1544 34.9838C9.24277 37.6869 5.67283 39.054 3.03762 37.9602Z" fill="#3C434C"/>
<path d="M45.9287 34.2458C45.6483 35.8743 44.5567 37.2985 42.9623 37.9602C40.3259 39.0545 36.7541 37.6859 35.8443 34.9805L36.4044 36.6483C37.3134 39.3548 40.3254 40.724 42.9622 39.6296C45.0803 38.7505 46.3115 36.526 45.9316 34.2644L45.9287 34.2458Z" fill="#3C434C"/>
<path d="M33.2803 27.3489C33.1826 27.0578 32.8331 26.9399 32.5798 27.1135C32.0069 27.506 31.5259 27.7294 30.6468 27.7294C29.2696 27.7294 28.021 27.1816 27.1048 26.2931C27.0199 26.2108 26.9051 26.1666 26.7869 26.1666H19.2131C19.0949 26.1666 18.9801 26.2107 18.8952 26.2931C17.9788 27.1816 16.7303 27.7294 15.3531 27.7294C14.4739 27.7294 13.9931 27.506 13.4203 27.1135C13.1669 26.9399 12.8175 27.0578 12.7196 27.3489L12.3586 28.4239C13.199 29.0364 14.2334 29.3988 15.353 29.3988C16.7943 29.3988 18.0948 28.7987 19.0209 27.8359H26.9788C27.9049 28.7987 29.2054 29.3988 30.6467 29.3988C31.7664 29.3988 32.8008 29.0364 33.6413 28.4238L33.2803 27.3489Z" fill="#3C434C"/>
<path d="M13.5138 23.5334C13.5138 24.361 14.6195 25.7131 15.5275 25.7131C16.4356 25.7131 17.5413 24.3547 17.5413 23.5334C17.2136 22.7439 16.4356 22.1884 15.5275 22.1884C14.6195 22.1884 13.8413 22.7439 13.5138 23.5334Z" fill="#DAD8DB"/>
<path d="M13.4613 15.3777H12.6082V14.5247C12.6082 13.7096 11.9475 13.0489 11.1324 13.0489C10.3174 13.0489 9.65665 13.7096 9.65665 14.5247V15.3777H8.80367C7.98861 15.3777 7.3279 16.0384 7.3279 16.8534C7.3279 17.6685 7.98861 18.3292 8.80367 18.3292H9.65665V19.1822C9.65665 19.9973 10.3174 20.658 11.1324 20.658C11.9475 20.658 12.6082 19.9973 12.6082 19.1822V18.3292H13.4613C14.2763 18.3292 14.937 17.6685 14.937 16.8534C14.937 16.0384 14.2762 15.3777 13.4613 15.3777Z" fill="#B3E59F"/>
<path d="M13.4613 15.3777H12.6082V14.5247C12.6082 13.7096 11.9475 13.0489 11.1324 13.0489C10.3174 13.0489 9.65665 13.7096 9.65665 14.5247V15.3777H8.80367C7.98861 15.3777 7.3279 16.0384 7.3279 16.8534C7.3279 17.6685 7.98861 18.3292 8.80367 18.3292H9.65665V19.1822C9.65665 19.9973 10.3174 20.658 11.1324 20.658C11.9475 20.658 12.6082 19.9973 12.6082 19.1822V18.3292H13.4613C14.2763 18.3292 14.937 17.6685 14.937 16.8534C14.937 16.0384 14.2762 15.3777 13.4613 15.3777Z" fill="#DAD8DB"/>
<path d="M35.3433 12.0953C34.6087 12.0953 34.0076 12.6964 34.0076 13.431C34.0076 14.1657 34.6087 14.7667 35.3433 14.7667C36.078 14.7667 36.679 14.1657 36.679 13.431C36.679 12.6964 36.078 12.0953 35.3433 12.0953Z" fill="#C4DBF9"/>
<path d="M35.3433 12.0953C34.6087 12.0953 34.0076 12.6964 34.0076 13.431C34.0076 14.1657 34.6087 14.7667 35.3433 14.7667C36.078 14.7667 36.679 14.1657 36.679 13.431C36.679 12.6964 36.078 12.0953 35.3433 12.0953Z" fill="#B3E59F"/>
<path d="M35.3433 18.9327C34.6087 18.9327 34.0076 19.5337 34.0076 20.2684C34.0076 21.003 34.6087 21.6041 35.3433 21.6041C36.078 21.6041 36.679 21.003 36.679 20.2684C36.679 19.5337 36.078 18.9327 35.3433 18.9327Z" fill="#BED8FB"/>
<path d="M40.0972 16.8518C40.0972 16.1172 39.4961 15.5161 38.7615 15.5161C38.0268 15.5161 37.4258 16.1172 37.4258 16.8518C37.4258 17.5865 38.0268 18.1875 38.7615 18.1875C39.4961 18.1875 40.0972 17.5864 40.0972 16.8518Z" fill="#EDC963"/>
<path d="M33.2597 16.8518C33.2597 16.1172 32.6586 15.5161 31.924 15.5161C31.1893 15.5161 30.5883 16.1172 30.5883 16.8518C30.5883 17.5865 31.1893 18.1875 31.924 18.1875C32.6586 18.1875 33.2597 17.5864 33.2597 16.8518Z" fill="#DF667C"/>
<path d="M18.697 13.4619H27.3033C28.1786 13.4619 29.1054 12.0216 29.1054 11.2048H16.895C16.9579 12.0216 17.8218 13.4619 18.697 13.4619Z" fill="#A6AEC4"/>
<path d="M15.528 24.8758C14.6199 24.8758 13.8418 24.3203 13.5142 23.5308C13.4075 23.7879 13.3484 24.0698 13.3484 24.3654C13.3484 25.5693 14.3242 26.5451 15.5281 26.5451C16.7319 26.5451 17.7078 25.5693 17.7078 24.3654C17.7078 24.0698 17.6485 23.7879 17.5419 23.5308C17.2142 24.3203 16.436 24.8758 15.528 24.8758Z" fill="#C8C5C9"/>
<path d="M28.458 23.5334C28.458 24.361 29.5637 25.7131 30.4719 25.7131C31.3799 25.7131 32.4856 24.3547 32.4856 23.5334C32.158 22.7439 31.3799 22.1884 30.4719 22.1884C29.5637 22.1884 28.7856 22.7439 28.458 23.5334Z" fill="#DAD8DB"/>
<path d="M30.4712 24.8758C29.5632 24.8758 28.785 24.3203 28.4574 23.5308C28.3506 23.7879 28.2915 24.0698 28.2915 24.3654C28.2915 25.5693 29.2674 26.5451 30.4712 26.5451C31.6751 26.5451 32.6509 25.5693 32.6509 24.3654C32.6509 24.0698 32.5917 23.7879 32.4851 23.5308C32.1574 24.3203 31.3793 24.8758 30.4712 24.8758Z" fill="#C8C5C9"/>
<path d="M27.3032 12.6273H18.697C17.8217 12.6273 17.09 12.0203 16.8949 11.2048H16.8422V12.4418C16.8422 13.4662 17.6726 14.2966 18.697 14.2966H27.3032C28.3276 14.2966 29.158 13.4662 29.158 12.4418V11.2048H29.1053C28.9102 12.0203 28.1784 12.6273 27.3032 12.6273Z" fill="#959DB0"/>
</g>
<defs>
<clipPath id="clip0">
<rect width="46" height="46" fill="white"/>
</clipPath>
</defs>
</svg>
