<svg width="46" height="46" viewBox="0 0 46 46" fill="none" xmlns="http://www.w3.org/2000/svg">
<g clipPath="url(#clip0)">
<path d="M45.4851 18.1852C48.1467 30.6052 40.236 42.8323 27.816 45.4939C15.396 48.1555 3.16894 40.2448 0.507327 27.8248C-2.15428 15.4048 5.75772 3.17772 18.1764 0.516114C30.5964 -2.14678 42.8235 5.76523 45.4851 18.1852Z" fill="#FFCB4C"/>
<path d="M37.4184 11.5152C38.4138 16.1612 35.4545 20.7357 30.8085 21.7311C26.1625 22.7265 21.588 19.7671 20.5913 15.1211C19.5959 10.4751 22.5553 5.90069 27.2013 4.9053C31.8473 3.90991 36.423 6.86796 37.4184 11.5152Z" fill="#F4F7F9"/>
<path d="M28.5021 14.4743C29.9396 14.4743 31.1049 13.309 31.1049 11.8714C31.1049 10.4339 29.9396 9.26862 28.5021 9.26862C27.0646 9.26862 25.8993 10.4339 25.8993 11.8714C25.8993 13.309 27.0646 14.4743 28.5021 14.4743Z" fill="#292F33"/>
<path d="M18.0014 18.249C18.584 20.9656 16.8527 23.6399 14.1361 24.2226C11.4195 24.8053 8.74516 23.0739 8.16249 20.3573C7.57983 17.6408 9.31122 14.9664 12.0278 14.3837C14.7443 13.8011 17.4187 15.5324 18.0014 18.249Z" fill="#F4F7F9"/>
<path d="M13.6028 22.6875C14.9429 22.4004 15.7964 21.0813 15.5092 19.7412C15.2221 18.4012 13.903 17.5477 12.5629 17.8348C11.2229 18.122 10.3694 19.4411 10.6565 20.7811C10.9437 22.1212 12.2628 22.9747 13.6028 22.6875Z" fill="#292F33"/>
<path d="M23.7987 26.7524C19.2715 27.7223 16.1563 27.8385 12.2859 27.9127C11.4029 27.9318 9.78784 28.448 10.3232 30.9474C11.394 35.9448 18.4742 40.9613 26.4769 39.2465C34.4783 37.5318 38.8816 30.0542 37.8108 25.0568C37.2754 22.5575 35.5887 22.7466 34.7761 23.0942C31.2162 24.6109 28.3258 25.7826 23.7987 26.7524Z" fill="#65471B"/>
<path d="M14.0555 30.6716V38.3383C14.0555 42.1716 16.611 46.005 21.7221 46.005C26.8333 46.005 29.3888 42.1716 29.3888 38.3383V30.6716H14.0555Z" fill="#E8596E"/>
<path d="M21.7222 40.739C22.1068 40.739 22.4186 40.4272 22.4186 40.0426V31.999H21.0245V40.0426C21.0258 40.4272 21.3376 40.739 21.7222 40.739Z" fill="#DD2F45"/>
<path d="M12.8212 30.4126C12.8212 30.4126 16.8372 30.8585 24.3339 29.2524C31.8307 27.6462 35.3113 25.5928 35.3113 25.5928C35.3113 25.5928 33.8841 31.1256 25.1377 33.0001C16.3913 34.8746 12.8212 30.4126 12.8212 30.4126Z" fill="white"/>
</g>
<defs>
<clipPath id="clip0">
<rect width="46" height="46" fill="white"/>
</clipPath>
</defs>
</svg>
