<svg width="46" height="46" viewBox="0 0 46 46" fill="none" xmlns="http://www.w3.org/2000/svg">
<g clipPath="url(#clip0)">
<path d="M29.0562 34.553C29.1541 35.065 28.8101 35.5566 28.2957 35.6403L7.05464 39.0951C6.416 39.2069 5.80125 38.779 5.68852 38.1443L0.0178382 6.2212C-0.0949868 5.5859 0.335673 4.97448 0.97486 4.86258L21.5125 1.26773C22.1511 1.15592 22.7659 1.58381 22.8786 2.21855L29.0562 34.553Z" fill="#454D58"/>
<path d="M28.2957 35.6403L9.40335 38.7122L11.3091 33.766L20.1675 10.766L23.071 3.22741L29.0566 34.5528C29.1537 35.0646 28.8104 35.5561 28.2957 35.6403Z" fill="#3A3D41"/>
<path d="M23.823 30.6444C23.9171 31.1511 23.5791 31.6372 23.0713 31.7253L9.87937 34.0149C9.4687 34.0878 9.06479 33.7611 8.98195 33.2888L4.81881 9.56507C4.73607 9.09359 5.00383 8.64831 5.41376 8.57546L18.6017 6.23298C19.0124 6.16005 19.4163 6.48677 19.4991 6.95908L20.7891 14.3095L23.823 30.6444Z" fill="#9C000D"/>
<path d="M23.071 31.7243L11.3091 33.7661L20.1675 10.7661L20.7895 14.3091L23.8235 30.6432C23.9169 31.1504 23.5791 31.6364 23.071 31.7243Z" fill="#330101"/>
<path d="M32.6958 44.6715L13.2267 37.2529C12.6203 37.0218 12.3149 36.3399 12.5479 35.7374L24.2505 5.47454C24.4831 4.87311 25.1685 4.56981 25.7737 4.80036L45.2429 12.219C45.8492 12.4501 46.1546 13.132 45.9216 13.7345L34.219 43.9974C33.9865 44.5988 33.301 44.9022 32.6958 44.6715Z" fill="#4A4D52"/>
<path d="M26.8997 5.2295L14.3705 37.6887L13.2265 37.2527C12.6203 37.0223 12.3148 36.3401 12.5471 35.7376L24.2498 5.47477C24.4831 4.87316 25.168 4.56958 25.7733 4.80005L26.8997 5.2295Z" fill="#454D58"/>
<path d="M24.9718 17.8068C26.4769 17.0207 28.0294 17.5914 28.2568 17.6791C30.2501 18.4477 30.8031 20.4561 30.8573 20.6669C31.064 20.5452 33.0697 19.41 35.132 20.3634C35.4821 20.5253 36.7366 21.1646 37.2672 22.5878C37.8531 24.1599 37.1663 25.6432 36.8757 26.2708C34.913 30.5091 27.8365 30.7285 27.0123 30.746C26.5342 30.2935 21.5796 25.4871 22.814 20.9587C23.013 20.2281 23.4575 18.5977 24.9718 17.8068Z" fill="#9C000D"/>
<path d="M29.455 30.5282C28.2332 30.7133 27.2836 30.741 27.0124 30.7466C26.5339 30.294 21.5794 25.4885 22.8141 20.9598C23.0131 20.2296 23.4574 18.5987 24.9716 17.8083C25.2826 17.6454 25.5954 17.5408 25.899 17.4788C25.5315 18.1878 25.3446 18.8755 25.2261 19.3105C24.0109 23.7689 27.5687 28.4401 29.455 30.5282Z" fill="#330101"/>
</g>
<defs>
<clipPath id="clip0">
<rect width="46" height="46" fill="white"/>
</clipPath>
</defs>
</svg>
